<?xml version="1.0" encoding="UTF-8"?>
<!DOCTYPE svg PUBLIC "-//W3C//DTD SVG 1.0//EN" "http://www.w3.org/TR/2001/REC-SVG-20010904/DTD/svg10.dtd">
<!-- Creator: CorelDRAW 2020 (64-Bit) -->
<svg xmlns="http://www.w3.org/2000/svg" xml:space="preserve" width="253px" height="239px" version="1.0" style="shape-rendering:geometricPrecision; text-rendering:geometricPrecision; image-rendering:optimizeQuality; fill-rule:evenodd; clip-rule:evenodd"
viewBox="0 0 682400 644600"
 xmlns:xlink="http://www.w3.org/1999/xlink"
 xmlns:xodm="http://www.corel.com/coreldraw/odm/2003">
 <defs>
  <style type="text/css">
   <![CDATA[
    .fil0 {fill:black}
   ]]>
  </style>
 </defs>
 <g id="Capa_x0020_1">
  <metadata id="CorelCorpID_0Corel-Layer"/>
  <path class="fil0" d="M625200 0l-558800 0c-31500,0 -57200,30300 -57200,67400 0,37100 25700,67500 57200,67500l558800 0c31400,0 57200,-30400 57200,-67500 0,-37100 -25800,-67400 -57200,-67400z"/>
  <path class="fil0" d="M616000 254900l-558800 0c-31400,0 -57200,30300 -57200,67400 0,37100 25800,67400 57200,67400l558800 0c31500,0 57200,-30300 57200,-67400 0,-37100 -25700,-67400 -57200,-67400z"/>
  <path class="fil0" d="M625200 509800l-558800 0c-31500,0 -57200,30300 -57200,67400 0,37100 25700,67400 57200,67400l558800 0c31400,0 57200,-30300 57200,-67400 0,-37100 -25800,-67400 -57200,-67400z"/>
 </g>
</svg>
